M48
; DRILL file {KiCad 5.1.6-c6e7f7d~87~ubuntu20.04.1} date Sat Aug 29 22:02:23 2020
; FORMAT={-:-/ absolute / inch / decimal}
; #@! TF.CreationDate,2020-08-29T22:02:23+08:00
; #@! TF.GenerationSoftware,Kicad,Pcbnew,5.1.6-c6e7f7d~87~ubuntu20.04.1
FMAT,2
INCH
T1C0.0157
T2C0.0197
T3C0.0394
T4C0.1260
T5C0.0394
%
G90
G05
T1
X-0.865Y0.95
X-0.525Y0.26
X-0.5244Y0.05
X-0.5244Y-0.04
X-0.4556Y0.17
X-0.455Y0.41
X-0.45Y-0.69
X-0.4Y-0.24
X-0.4Y-0.485
X-0.4Y-0.67
X-0.385Y0.86
X-0.36Y1.2
X-0.35Y-0.745
X-0.31Y-1.6456
X-0.3Y-0.745
X-0.275Y0.51
X-0.265Y0.09
X-0.25Y-0.7974
X-0.235Y0.365
X-0.2Y0.175
X-0.1314Y-1.51
X-0.085Y0.29
X-0.085Y0.075
X-0.08Y0.805
X-0.07Y0.49
X-0.065Y0.64
X-0.0505Y0.3905
X-0.03Y0.86
X0.0Y0.145
X0.0Y0.035
X0.025Y-0.77
X0.035Y-0.61
X0.09Y0.8606
X0.1Y0.34
X0.1Y0.14
X0.1Y0.035
X0.1456Y-1.095
X0.15Y0.805
X0.1526Y-0.8701
X0.195Y-0.52
X0.195Y-0.8
X0.2Y0.145
X0.2Y0.035
X0.2326Y0.5294
X0.235Y0.61
X0.2361Y0.67
X0.26Y0.285
X0.275Y-1.36
X0.355Y0.78
X0.365Y1.13
X0.37Y-0.895
X0.375Y1.43
X0.39Y-1.04
X0.41Y-0.545
X0.525Y-0.1
T2
X-0.1654Y1.3937
X-0.1377Y1.4605
X-0.1377Y1.3269
X-0.0709Y1.4882
X-0.0709Y1.2992
X-0.0041Y1.4605
X-0.0041Y1.3269
X0.0236Y1.3937
T3
X0.065Y-0.23
X0.165Y-0.23
X0.265Y-0.23
X0.365Y-0.23
X0.465Y-0.23
X-0.72Y-0.935
X-0.62Y-0.935
X-0.52Y-0.935
X-0.42Y-0.935
X-0.32Y-0.935
X-0.22Y-0.935
X-0.12Y-0.935
X-0.02Y-0.935
T4
X-0.0709Y1.3937
T5
X0.265Y-0.7946
X0.2861Y-0.6227
T3
G00X0.495Y0.465
M15
G01X0.5176Y0.4327
M16
G05
G00X0.644Y0.2521
M15
G01X0.6666Y0.2199
M16
G05
T0
M30
